<?xml version="1.0" encoding="utf-8"?>
<!-- Generator: Adobe Illustrator 22.1.0, SVG Export Plug-In . SVG Version: 6.00 Build 0)  -->
<svg version="1.1" id="Layer_1" xmlns="http://www.w3.org/2000/svg" xmlns:xlink="http://www.w3.org/1999/xlink" x="0px" y="0px"
	 viewBox="0 0 512 512" style="enable-background:new 0 0 512 512;" xml:space="preserve">
<style type="text/css">
	.st0{fill:#FFFFFF;}
</style>
<path class="st0" d="M348.3,295.6c-5-5.1-13.3-5.1-18.4-0.1L269,356.2V124.9c0-7.1-5.8-12.9-13-12.9s-13,5.8-13,12.9v231.3
	l-60.9-60.8c-5.1-5-13.3-4.9-18.4,0.1c-5,5.1-5,13.2,0.1,18.3l83,82.4c1.2,1.1,2.5,2,4.1,2.7s3.3,1,5,1c3.4,0,6.6-1.3,9.1-3.7
	l83-82.4C353.2,308.9,353.3,300.7,348.3,295.6L348.3,295.6z"/>
</svg>
